<svg width="206" height="210" viewBox="0 0 206 210" fill="none" xmlns="http://www.w3.org/2000/svg">
<path d="M98.94 134.98V132.64L92.36 129.52L98.94 126.4V124.06L89.84 128.56V130.44L98.94 134.98ZM100.611 138.22H102.991L106.251 121.6H103.851L100.611 138.22ZM111.674 136.16H111.854C112.774 136.16 113.594 135.96 114.314 135.56C115.034 135.16 115.647 134.573 116.154 133.8L114.354 132.52C114.047 133.053 113.694 133.46 113.294 133.74C112.907 134.007 112.467 134.14 111.974 134.14H111.794C111.407 134.14 111.054 134.067 110.734 133.92C110.414 133.773 110.14 133.567 109.914 133.3C109.7 133.02 109.527 132.687 109.394 132.3C109.274 131.913 109.214 131.487 109.214 131.02V130.58C109.214 130.087 109.274 129.647 109.394 129.26C109.514 128.873 109.674 128.547 109.874 128.28C110.087 128 110.347 127.793 110.654 127.66C110.96 127.513 111.307 127.44 111.694 127.44H111.854C112.374 127.44 112.834 127.573 113.234 127.84C113.634 128.093 113.987 128.493 114.294 129.04L116.094 127.84C115.614 127.053 115 126.46 114.254 126.06C113.507 125.647 112.687 125.44 111.794 125.44H111.614C110.907 125.44 110.247 125.567 109.634 125.82C109.034 126.06 108.507 126.407 108.054 126.86C107.614 127.313 107.267 127.853 107.014 128.48C106.774 129.093 106.654 129.767 106.654 130.5V131.06C106.654 131.807 106.774 132.493 107.014 133.12C107.267 133.733 107.614 134.273 108.054 134.74C108.494 135.193 109.02 135.547 109.634 135.8C110.247 136.04 110.927 136.16 111.674 136.16ZM122.34 136.18H122.54C123.287 136.18 123.973 136.06 124.6 135.82C125.227 135.567 125.767 135.213 126.22 134.76C126.673 134.307 127.027 133.767 127.28 133.14C127.533 132.513 127.66 131.833 127.66 131.1V130.5C127.66 129.753 127.533 129.073 127.28 128.46C127.027 127.833 126.673 127.293 126.22 126.84C125.767 126.387 125.227 126.04 124.6 125.8C123.973 125.547 123.287 125.42 122.54 125.42H122.34C121.58 125.42 120.887 125.547 120.26 125.8C119.633 126.04 119.093 126.387 118.64 126.84C118.187 127.293 117.833 127.833 117.58 128.46C117.34 129.073 117.22 129.753 117.22 130.5V131.1C117.22 131.833 117.34 132.513 117.58 133.14C117.833 133.767 118.187 134.307 118.64 134.76C119.093 135.213 119.633 135.567 120.26 135.82C120.887 136.06 121.58 136.18 122.34 136.18ZM122.34 134.2C121.953 134.2 121.6 134.127 121.28 133.98C120.973 133.833 120.707 133.62 120.48 133.34C120.267 133.047 120.093 132.707 119.96 132.32C119.84 131.92 119.78 131.48 119.78 131V130.52C119.78 130.053 119.84 129.627 119.96 129.24C120.093 128.853 120.273 128.527 120.5 128.26C120.727 127.98 120.993 127.767 121.3 127.62C121.62 127.473 121.967 127.4 122.34 127.4H122.52C122.893 127.4 123.24 127.473 123.56 127.62C123.88 127.767 124.147 127.98 124.36 128.26C124.587 128.527 124.76 128.853 124.88 129.24C125.013 129.627 125.08 130.053 125.08 130.52V131C125.08 131.48 125.02 131.92 124.9 132.32C124.78 132.707 124.607 133.047 124.38 133.34C124.153 133.62 123.88 133.833 123.56 133.98C123.253 134.127 122.907 134.2 122.52 134.2H122.34ZM133.675 136.18H133.835C134.529 136.18 135.155 136.06 135.715 135.82C136.275 135.567 136.762 135.22 137.175 134.78C137.202 134.993 137.235 135.213 137.275 135.44C137.329 135.653 137.389 135.84 137.455 136H139.415V121.6H136.935V126.62C136.535 126.233 136.075 125.94 135.555 125.74C135.049 125.527 134.482 125.42 133.855 125.42H133.675C132.995 125.42 132.369 125.547 131.795 125.8C131.235 126.04 130.749 126.387 130.335 126.84C129.935 127.28 129.622 127.813 129.395 128.44C129.182 129.067 129.075 129.753 129.075 130.5V131.1C129.075 131.847 129.182 132.533 129.395 133.16C129.622 133.773 129.935 134.307 130.335 134.76C130.749 135.213 131.235 135.567 131.795 135.82C132.369 136.06 132.995 136.18 133.675 136.18ZM134.215 134.2C133.829 134.2 133.475 134.127 133.155 133.98C132.849 133.833 132.582 133.62 132.355 133.34C132.142 133.06 131.969 132.727 131.835 132.34C131.715 131.94 131.655 131.493 131.655 131V130.52C131.655 130.053 131.715 129.627 131.835 129.24C131.969 128.853 132.142 128.527 132.355 128.26C132.582 127.98 132.849 127.767 133.155 127.62C133.475 127.473 133.829 127.4 134.215 127.4H134.375C134.762 127.4 135.109 127.473 135.415 127.62C135.735 127.767 136.009 127.98 136.235 128.26C136.462 128.527 136.635 128.853 136.755 129.24C136.875 129.627 136.935 130.053 136.935 130.52V131C136.935 131.48 136.875 131.92 136.755 132.32C136.635 132.707 136.462 133.047 136.235 133.34C136.022 133.62 135.755 133.833 135.435 133.98C135.115 134.127 134.762 134.2 134.375 134.2H134.215ZM142.295 136H144.775V125.6H142.295V136ZM143.515 123.98C143.955 123.98 144.308 123.86 144.575 123.62C144.855 123.38 144.995 123.06 144.995 122.66C144.995 122.26 144.855 121.933 144.575 121.68C144.308 121.427 143.955 121.3 143.515 121.3C143.088 121.3 142.741 121.427 142.475 121.68C142.208 121.933 142.075 122.26 142.075 122.66C142.075 123.06 142.208 123.38 142.475 123.62C142.741 123.86 143.088 123.98 143.515 123.98ZM147.588 136H150.068V130.32C150.068 129.893 150.128 129.513 150.248 129.18C150.368 128.847 150.535 128.56 150.748 128.32C150.975 128.067 151.241 127.88 151.548 127.76C151.855 127.627 152.201 127.56 152.588 127.56H152.708C153.361 127.56 153.841 127.753 154.148 128.14C154.455 128.527 154.608 129.1 154.608 129.86V136H157.088V129.34C157.088 128.073 156.781 127.1 156.168 126.42C155.568 125.74 154.695 125.4 153.548 125.4H153.428C152.695 125.4 152.021 125.553 151.408 125.86C150.808 126.153 150.288 126.56 149.848 127.08C149.821 126.853 149.781 126.6 149.728 126.32C149.675 126.04 149.615 125.8 149.548 125.6H147.588V136ZM159.016 129.34C159.016 130.033 159.196 130.653 159.556 131.2C159.916 131.733 160.403 132.16 161.016 132.48V134.32C160.363 134.573 159.85 134.927 159.476 135.38C159.103 135.82 158.916 136.34 158.916 136.94V137.18C158.916 137.633 159.03 138.04 159.256 138.4C159.483 138.773 159.796 139.093 160.196 139.36C160.596 139.627 161.076 139.827 161.636 139.96C162.196 140.107 162.816 140.18 163.496 140.18H164.156C164.836 140.18 165.456 140.107 166.016 139.96C166.576 139.827 167.056 139.627 167.456 139.36C167.856 139.093 168.17 138.773 168.396 138.4C168.623 138.04 168.736 137.633 168.736 137.18V137C168.736 136.547 168.623 136.14 168.396 135.78C168.17 135.407 167.856 135.087 167.456 134.82C167.07 134.553 166.596 134.353 166.036 134.22C165.476 134.087 164.856 134.02 164.176 134.02H163.916C163.743 134.02 163.583 134.02 163.436 134.02C163.303 134.02 163.163 134.027 163.016 134.04V132.96C163.123 132.987 163.23 133.007 163.336 133.02C163.443 133.02 163.563 133.02 163.696 133.02H163.916C164.543 133.02 165.123 132.933 165.656 132.76C166.203 132.573 166.67 132.313 167.056 131.98C167.456 131.647 167.763 131.26 167.976 130.82C168.203 130.367 168.316 129.873 168.316 129.34V129.1C168.316 128.553 168.203 128.06 167.976 127.62C167.763 127.167 167.456 126.78 167.056 126.46C166.67 126.127 166.21 125.873 165.676 125.7C165.143 125.513 164.556 125.42 163.916 125.42H163.416C162.776 125.42 162.19 125.513 161.656 125.7C161.123 125.873 160.656 126.127 160.256 126.46C159.87 126.78 159.563 127.167 159.336 127.62C159.123 128.06 159.016 128.553 159.016 129.1V129.34ZM161.476 129.12C161.476 128.853 161.53 128.613 161.636 128.4C161.743 128.173 161.89 127.98 162.076 127.82C162.263 127.66 162.476 127.54 162.716 127.46C162.97 127.367 163.243 127.32 163.536 127.32H163.796C164.09 127.32 164.356 127.367 164.596 127.46C164.85 127.54 165.07 127.66 165.256 127.82C165.443 127.98 165.59 128.173 165.696 128.4C165.803 128.613 165.856 128.853 165.856 129.12V129.42C165.856 129.687 165.803 129.933 165.696 130.16C165.59 130.387 165.443 130.58 165.256 130.74C165.083 130.9 164.87 131.027 164.616 131.12C164.363 131.2 164.09 131.24 163.796 131.24H163.536C163.243 131.24 162.97 131.2 162.716 131.12C162.476 131.027 162.263 130.9 162.076 130.74C161.89 130.58 161.743 130.393 161.636 130.18C161.53 129.953 161.476 129.7 161.476 129.42V129.12ZM161.416 136.9C161.416 136.527 161.603 136.227 161.976 136C162.363 135.76 162.903 135.64 163.596 135.64H164.076C164.783 135.64 165.33 135.76 165.716 136C166.116 136.227 166.316 136.527 166.316 136.9V137.08C166.316 137.44 166.123 137.733 165.736 137.96C165.35 138.2 164.796 138.32 164.076 138.32H163.596C162.89 138.32 162.35 138.207 161.976 137.98C161.603 137.753 161.416 137.447 161.416 137.06V136.9ZM168.656 124.3H166.456C166.296 124.5 166.15 124.747 166.016 125.04C165.883 125.32 165.763 125.633 165.656 125.98L167.296 127L168.656 124.3ZM170.455 134.98L179.555 130.44V128.56L170.455 124.06V126.4L177.015 129.52L170.455 132.64V134.98Z" fill="black"/>
<path d="M28.7 119H43.3C45.1333 119 46.7833 118.783 48.25 118.35C49.7167 117.883 50.9667 117.25 52 116.45C53.0667 115.617 53.8833 114.617 54.45 113.45C55.0167 112.283 55.3 110.967 55.3 109.5V108.85C55.3 106.95 54.7833 105.267 53.75 103.8C52.7167 102.333 51.2333 101.183 49.3 100.35C50.8333 99.4833 51.95 98.45 52.65 97.25C53.35 96.05 53.7 94.6833 53.7 93.15V92.55C53.7 91.25 53.4 90.0667 52.8 89C52.2333 87.9333 51.4333 87.0333 50.4 86.3C49.3667 85.5667 48.1167 85 46.65 84.6C45.2167 84.2 43.6333 84 41.9 84H28.7V119ZM36.2 112.4V104H42.7C43.4667 104 44.15 104.1 44.75 104.3C45.35 104.467 45.8667 104.733 46.3 105.1C46.7333 105.433 47.0667 105.85 47.3 106.35C47.5667 106.85 47.7 107.4 47.7 108V108.6C47.7 109.167 47.5667 109.683 47.3 110.15C47.0667 110.617 46.7333 111.033 46.3 111.4C45.9 111.733 45.4 111.983 44.8 112.15C44.2 112.317 43.55 112.4 42.85 112.4H36.2ZM36.2 98.5V90.55H41.7C43.1 90.55 44.2 90.8833 45 91.55C45.8333 92.1833 46.25 93.05 46.25 94.15V94.7C46.25 95.8667 45.8167 96.8 44.95 97.5C44.0833 98.1667 42.9667 98.5 41.6 98.5H36.2ZM60.8289 119H82.4789V112.2H68.6289V104.65H80.9789V98.2H68.6289V90.8H81.9789V84H60.8289V119ZM88.7586 119H100.359C103.092 119 105.559 118.6 107.759 117.8C109.992 116.967 111.892 115.8 113.459 114.3C115.059 112.767 116.275 110.95 117.109 108.85C117.975 106.75 118.409 104.4 118.409 101.8V100.8C118.409 98.2667 117.975 95.9667 117.109 93.9C116.275 91.8333 115.059 90.0667 113.459 88.6C111.892 87.1333 109.992 86 107.759 85.2C105.559 84.4 103.092 84 100.359 84H88.7586V119ZM96.5586 112.2V90.8H100.459C101.992 90.8 103.375 91.0333 104.609 91.5C105.842 91.9667 106.875 92.6333 107.709 93.5C108.575 94.3333 109.225 95.3667 109.659 96.6C110.092 97.8333 110.309 99.2167 110.309 100.75V101.75C110.309 103.35 110.092 104.8 109.659 106.1C109.225 107.4 108.575 108.5 107.709 109.4C106.875 110.267 105.842 110.95 104.609 111.45C103.409 111.95 102.025 112.2 100.459 112.2H96.5586ZM129.033 119H136.883V105.35L148.733 84H139.783L133.133 98.05H132.783L126.083 84H117.083L129.033 105.35V119ZM151.893 119H159.693V102.6H160.093L171.493 119H180.843L166.893 100.1L179.943 84H171.043L160.093 98.6H159.693V84H151.893V119Z" fill="black"/>
</svg>
